<svg width="1024" height="1024" viewBox="0 0 1024 1024" xmlns="http://www.w3.org/2000/svg">
  <defs>
    <linearGradient id="bg" x1="0" y1="0" x2="1" y2="1">
      <stop offset="0" stop-color="#34D8C4"/>
      <stop offset="0.55" stop-color="#16B6D6"/>
      <stop offset="1" stop-color="#1273C4"/>
    </linearGradient>
    <radialGradient id="glow" cx="0.3" cy="0.25" r="0.9">
      <stop offset="0" stop-color="#ffffff" stop-opacity="0.35"/>
      <stop offset="0.5" stop-color="#ffffff" stop-opacity="0"/>
    </radialGradient>
    <linearGradient id="handle" x1="0" y1="0" x2="1" y2="0">
      <stop offset="0" stop-color="#8B5A2B"/>
      <stop offset="0.45" stop-color="#C68E54"/>
      <stop offset="0.55" stop-color="#D9A66A"/>
      <stop offset="1" stop-color="#7A4A22"/>
    </linearGradient>
    <linearGradient id="binding" x1="0" y1="0" x2="0" y2="1">
      <stop offset="0" stop-color="#E05A36"/>
      <stop offset="1" stop-color="#B23A1E"/>
    </linearGradient>
    <linearGradient id="bristle" x1="0" y1="0" x2="0" y2="1">
      <stop offset="0" stop-color="#FBD56A"/>
      <stop offset="0.6" stop-color="#F1B73E"/>
      <stop offset="1" stop-color="#DE9A2A"/>
    </linearGradient>
    <filter id="shadow" x="-30%" y="-30%" width="160%" height="160%">
      <feDropShadow dx="0" dy="14" stdDeviation="18" flood-color="#063B4A" flood-opacity="0.30"/>
    </filter>
  </defs>

  <!-- background -->
  <rect x="0" y="0" width="1024" height="1024" rx="230" fill="url(#bg)"/>
  <rect x="0" y="0" width="1024" height="1024" rx="230" fill="url(#glow)"/>

  <!-- sweep motion arcs -->
  <g fill="none" stroke="#ffffff" stroke-linecap="round" opacity="0.55">
    <path d="M250 720 q150 70 360 35" stroke-width="20" opacity="0.30"/>
    <path d="M250 780 q170 75 410 32" stroke-width="16" opacity="0.22"/>
    <path d="M255 838 q180 78 440 28" stroke-width="12" opacity="0.16"/>
  </g>

  <!-- broom -->
  <g transform="rotate(-26 512 512)" filter="url(#shadow)">
    <!-- handle -->
    <rect x="489" y="150" width="46" height="415" rx="23" fill="url(#handle)"/>
    <rect x="497" y="172" width="11" height="372" rx="6" fill="#ffffff" opacity="0.22"/>
    <circle cx="512" cy="182" r="9" fill="#5E3A1A" opacity="0.55"/>

    <!-- binding -->
    <rect x="466" y="540" width="92" height="78" rx="16" fill="url(#binding)"/>
    <line x1="474" y1="563" x2="550" y2="563" stroke="#7E2410" stroke-width="5" stroke-linecap="round" opacity="0.7"/>
    <line x1="474" y1="595" x2="550" y2="595" stroke="#7E2410" stroke-width="5" stroke-linecap="round" opacity="0.7"/>

    <!-- bristles fan -->
    <path d="M474 612
             L356 838 L386 818 L416 842 L446 820 L476 846
             L512 822 L548 846 L578 820 L608 842 L638 818 L668 838
             L550 612 Z" fill="url(#bristle)"/>
    <!-- bristle separation lines -->
    <g stroke="#B97C1E" stroke-width="6" stroke-linecap="round" opacity="0.55">
      <path d="M500 626 L398 824"/>
      <path d="M508 626 L452 832"/>
      <path d="M514 626 L512 826"/>
      <path d="M520 626 L572 832"/>
      <path d="M526 626 L624 824"/>
    </g>
    <!-- bristle top sheen -->
    <path d="M474 612 L550 612 L556 644 L470 644 Z" fill="#FFE3A0" opacity="0.5"/>
  </g>

  <!-- sparkles (the clean result) -->
  <g fill="#ffffff">
    <path d="M735 360 q14 50 64 64 q-50 14 -64 64 q-14 -50 -64 -64 q50 -14 64 -64 Z"/>
    <path d="M812 250 q8 30 38 38 q-30 8 -38 38 q-8 -30 -38 -38 q30 -8 38 -38 Z" opacity="0.9"/>
    <path d="M700 540 q6 22 28 28 q-22 6 -28 28 q-6 -22 -28 -28 q22 -6 28 -28 Z" opacity="0.85"/>
  </g>
</svg>
